HIERARCHY
ROOT Hips
{
    OFFSET   0.000000   0.000000   0.000000
    CHANNELS 6 Xposition Yposition Zposition Zrotation Xrotation Yrotation
    JOINT Chest
    {
        OFFSET   0.000000   8.007230   0.000000
        CHANNELS 3 Zrotation Xrotation Yrotation
        JOINT Chest2
        {
            OFFSET   0.000000  22.077100   0.000000
            CHANNELS 3 Zrotation Xrotation Yrotation
            JOINT Neck
            {
                OFFSET   0.000000  23.254800   0.000000
                CHANNELS 3 Zrotation Xrotation Yrotation
                JOINT Head
                {
                    OFFSET   0.000010  14.370000   1.956600
                    CHANNELS 3 Zrotation Xrotation Yrotation
                    End Site
                    {
                        OFFSET   0.000000  19.566000   0.000000
                    }
                }
            }
            JOINT LeftCollar
            {
                OFFSET   3.911900  19.017000  -0.467062
                CHANNELS 3 Zrotation Xrotation Yrotation
                JOINT LeftShoulder
                {
                    OFFSET  10.383700   0.000000   0.000000
                    CHANNELS 3 Zrotation Xrotation Yrotation
                    JOINT LeftElbow
                    {
                        OFFSET  26.662100   0.001193   0.000835
                        CHANNELS 3 Zrotation Xrotation Yrotation
                        JOINT LeftWrist
                        {
                            OFFSET  28.869000  -0.000058  -0.000075
                            CHANNELS 3 Zrotation Xrotation Yrotation
                            JOINT LeftFinger0
                            {
                                OFFSET   2.044660  -2.323460   3.252850
                                CHANNELS 3 Zrotation Xrotation Yrotation
                                JOINT LeftFinger01
                                {
                                    OFFSET   3.088130   0.000000   0.000000
                                    CHANNELS 3 Zrotation Xrotation Yrotation
                                    JOINT LeftFinger02
                                    {
                                        OFFSET   2.639450   0.000000   0.000000
                                        CHANNELS 3 Zrotation Xrotation Yrotation
                                        End Site
                                        {
                                            OFFSET   2.582190   0.000000   0.000000
                                        }
                                    }
                                }
                            }
                            JOINT LeftFinger1
                            {
                                OFFSET   8.364480   0.000000   3.252850
                                CHANNELS 3 Zrotation Xrotation Yrotation
                                JOINT LeftFinger11
                                {
                                    OFFSET   4.646920   0.000000   0.000000
                                    CHANNELS 3 Zrotation Xrotation Yrotation
                                    JOINT LeftFinger12
                                    {
                                        OFFSET   2.323460   0.000000   0.000000
                                        CHANNELS 3 Zrotation Xrotation Yrotation
                                        End Site
                                        {
                                            OFFSET   2.273050   0.000000   0.000000
                                        }
                                    }
                                }
                            }
                            JOINT LeftFinger2
                            {
                                OFFSET   8.364490   0.000016   1.078090
                                CHANNELS 3 Zrotation Xrotation Yrotation
                                JOINT LeftFinger21
                                {
                                    OFFSET   5.111620   0.000000   0.000000
                                    CHANNELS 3 Zrotation Xrotation Yrotation
                                    JOINT LeftFinger22
                                    {
                                        OFFSET   2.788150   0.000012   0.000000
                                        CHANNELS 3 Zrotation Xrotation Yrotation
                                        End Site
                                        {
                                            OFFSET   2.727660   0.000000   0.000000
                                        }
                                    }
                                }
                            }
                            JOINT LeftFinger3
                            {
                                OFFSET   7.899780   0.000014  -1.078090
                                CHANNELS 3 Zrotation Xrotation Yrotation
                                JOINT LeftFinger31
                                {
                                    OFFSET   4.646930   0.000000   0.000000
                                    CHANNELS 3 Zrotation Xrotation Yrotation
                                    JOINT LeftFinger32
                                    {
                                        OFFSET   2.323470   0.000000   0.000000
                                        CHANNELS 3 Zrotation Xrotation Yrotation
                                        End Site
                                        {
                                            OFFSET   2.273050   0.000000   0.000000
                                        }
                                    }
                                }
                            }
                            JOINT LeftFinger4
                            {
                                OFFSET   7.435090   0.000000  -3.252850
                                CHANNELS 3 Zrotation Xrotation Yrotation
                                JOINT LeftFinger41
                                {
                                    OFFSET   3.717550   0.000000   0.000000
                                    CHANNELS 3 Zrotation Xrotation Yrotation
                                    JOINT LeftFinger42
                                    {
                                        OFFSET   1.858770   0.000000   0.000000
                                        CHANNELS 3 Zrotation Xrotation Yrotation
                                        End Site
                                        {
                                            OFFSET   1.818440   0.000000   0.000000
                                        }
                                    }
                                }
                            }
                        }
                    }
                }
            }
            JOINT RightCollar
            {
                OFFSET  -3.911900  19.017000  -0.467063
                CHANNELS 3 Zrotation Xrotation Yrotation
                JOINT RightShoulder
                {
                    OFFSET -10.383700   0.000023   0.000000
                    CHANNELS 3 Zrotation Xrotation Yrotation
                    JOINT RightElbow
                    {
                        OFFSET -26.662100   0.001246   0.001011
                        CHANNELS 3 Zrotation Xrotation Yrotation
                        JOINT RightWrist
                        {
                            OFFSET -28.869000  -0.000026  -0.000078
                            CHANNELS 3 Zrotation Xrotation Yrotation
                            JOINT RightFinger0
                            {
                                OFFSET  -2.044660  -2.323490   3.252850
                                CHANNELS 3 Zrotation Xrotation Yrotation
                                JOINT RightFinger01
                                {
                                    OFFSET  -3.088130   0.000000   0.000000
                                    CHANNELS 3 Zrotation Xrotation Yrotation
                                    JOINT RightFinger02
                                    {
                                        OFFSET  -2.639460   0.000000   0.000000
                                        CHANNELS 3 Zrotation Xrotation Yrotation
                                        End Site
                                        {
                                            OFFSET  -2.582190   0.000000   0.000000
                                        }
                                    }
                                }
                            }
                            JOINT RightFinger1
                            {
                                OFFSET  -8.364480   0.000000   3.252850
                                CHANNELS 3 Zrotation Xrotation Yrotation
                                JOINT RightFinger11
                                {
                                    OFFSET  -4.646920   0.000000   0.000000
                                    CHANNELS 3 Zrotation Xrotation Yrotation
                                    JOINT RightFinger12
                                    {
                                        OFFSET  -2.323470   0.000000   0.000000
                                        CHANNELS 3 Zrotation Xrotation Yrotation
                                        End Site
                                        {
                                            OFFSET  -2.273050   0.000000   0.000000
                                        }
                                    }
                                }
                            }
                            JOINT RightFinger2
                            {
                                OFFSET  -8.364480   0.000000   1.078090
                                CHANNELS 3 Zrotation Xrotation Yrotation
                                JOINT RightFinger21
                                {
                                    OFFSET  -5.111620   0.000000   0.000000
                                    CHANNELS 3 Zrotation Xrotation Yrotation
                                    JOINT RightFinger22
                                    {
                                        OFFSET  -2.788160   0.000000   0.000000
                                        CHANNELS 3 Zrotation Xrotation Yrotation
                                        End Site
                                        {
                                            OFFSET  -2.727660   0.000000   0.000000
                                        }
                                    }
                                }
                            }
                            JOINT RightFinger3
                            {
                                OFFSET  -7.899780   0.000000  -1.078090
                                CHANNELS 3 Zrotation Xrotation Yrotation
                                JOINT RightFinger31
                                {
                                    OFFSET  -4.646930   0.000000   0.000000
                                    CHANNELS 3 Zrotation Xrotation Yrotation
                                    JOINT RightFinger32
                                    {
                                        OFFSET  -2.323470   0.000000   0.000000
                                        CHANNELS 3 Zrotation Xrotation Yrotation
                                        End Site
                                        {
                                            OFFSET  -2.273050   0.000000   0.000000
                                        }
                                    }
                                }
                            }
                            JOINT RightFinger4
                            {
                                OFFSET  -7.435090   0.000000  -3.252850
                                CHANNELS 3 Zrotation Xrotation Yrotation
                                JOINT RightFinger41
                                {
                                    OFFSET  -3.717550   0.000000   0.000000
                                    CHANNELS 3 Zrotation Xrotation Yrotation
                                    JOINT RightFinger42
                                    {
                                        OFFSET  -1.858760   0.000000   0.000000
                                        CHANNELS 3 Zrotation Xrotation Yrotation
                                        End Site
                                        {
                                            OFFSET  -1.818440   0.000000   0.000000
                                        }
                                    }
                                }
                            }
                        }
                    }
                }
            }
        }
    }
    JOINT LeftHip
    {
        OFFSET   9.783010   0.000000   0.000000
        CHANNELS 3 Zrotation Xrotation Yrotation
        JOINT LeftKnee
        {
            OFFSET   0.000073 -41.789100   0.001749
            CHANNELS 3 Zrotation Xrotation Yrotation
            JOINT LeftAnkle
            {
                OFFSET   0.000111 -41.133200  -0.000179
                CHANNELS 3 Zrotation Xrotation Yrotation
                JOINT LeftToe
                {
                    OFFSET   0.000000  -6.358960  14.674500
                    CHANNELS 3 Zrotation Xrotation Yrotation
                    End Site
                    {
                        OFFSET   0.000000   0.000000   3.913200
                    }
                }
            }
        }
    }
    JOINT RightHip
    {
        OFFSET  -9.783010   0.000000   0.000000
        CHANNELS 3 Zrotation Xrotation Yrotation
        JOINT RightKnee
        {
            OFFSET   0.000424 -41.789200   0.005205
            CHANNELS 3 Zrotation Xrotation Yrotation
            JOINT RightAnkle
            {
                OFFSET   0.000000 -41.133200  -0.000155
                CHANNELS 3 Zrotation Xrotation Yrotation
                JOINT RightToe
                {
                    OFFSET   0.000000  -6.358960  14.674500
                    CHANNELS 3 Zrotation Xrotation Yrotation
                    End Site
                    {
                        OFFSET   0.000000   0.000000   3.913200
                    }
                }
            }
        }
    }
}
MOTION
Frames: 4
Frame Time:   0.016667
 -0.138262  89.615300   0.365577  -2.268510  -7.811660   0.006948   0.329445   3.988820   0.900720   0.598014   7.982310   1.784890   1.625480   0.989138  -0.021784   2.671970   2.000870  -2.560420  -1.011130  -1.851610   1.108330 -76.667800  14.811900   0.301287  -1.572310  -2.945020 -13.738100  10.311500  -7.310670   0.064590  39.199300  25.332600 -57.592400 -25.175100   0.000000   0.000067  -7.587550   0.013044  -0.001084 -23.557100   3.806570  -8.654700 -19.508100  -0.004396   0.002892 -13.655700   0.000217   0.002987 -24.579200  -0.075882   0.165900 -24.579300  -0.000564   0.002762 -16.369800  -0.001018   0.001630 -23.701700  -0.073363   0.167026 -23.701900  -0.000737   0.005256 -15.785400  -0.001537   0.002694 -23.356300  -0.072337   0.167475 -35.034700  -0.004796   0.002320 -23.333100  -0.008773  -0.000107   7.771670   0.750364   2.907150  73.008900   3.173210  -5.902280   0.684352  -8.872470   9.767620 -15.703300  -6.238950   2.434240 -37.885700  30.805300  66.202200  29.855300   0.001497  -0.001166   9.927650  -0.000184  -0.000601  22.673900   2.747110   6.542730  18.679900  -0.005374  -0.000486  13.075900  -0.001904  -0.001995  27.022900   1.278610   2.493270  27.176900  -0.013311   0.006854  18.099800  -0.001650   0.002762  23.043100   0.589978   1.378770  23.050000  -0.003046   0.006191  15.348200  -0.002903   0.004542  31.066300   0.773266   1.283380  46.612500   0.001394   0.002400  31.043900   0.005730   0.005988   2.862550   8.878290   3.322360   1.398340   0.018026   8.034650  -2.434450  -2.092820   0.883558  -0.000000   0.000000   0.000000   3.181650   7.647070   0.343348  -1.512580   3.221540  -9.656900   1.045190  -4.290850  -2.847240  -0.000000   0.000000   0.000000
 -0.145529  89.615300   0.364705  -2.268790  -7.811660   0.004911   0.329302   3.997900   0.903266   0.597401   8.000500   1.789940   1.619400   0.966784  -0.021756   2.662260   1.955460  -2.544630  -1.022920  -1.851520   1.098680 -76.641100  14.806700   0.277382  -1.572660  -2.946710 -13.738100  10.311100  -7.308820   0.059758  39.209700  25.322200 -57.576600 -25.151200   0.000000   0.000091  -7.575600   0.013060  -0.001089 -23.555300   3.811460  -8.670180 -19.508100  -0.004412   0.002888 -13.655700   0.000202   0.003002 -24.571800  -0.068107   0.147553 -24.571800  -0.000468   0.002783 -16.364800  -0.000964   0.001663 -23.703100  -0.065855   0.148549 -23.703300  -0.000677   0.005338 -15.786400  -0.001501   0.002836 -23.357000  -0.064940   0.148946 -35.035600  -0.004729   0.002361 -23.333700  -0.008818  -0.000069   7.767840   0.745715   2.908350  73.019600   3.165340  -5.937070   0.713283  -8.873600   9.737060 -15.722700  -6.232370   2.424550 -37.868900  30.798000  66.212500  29.868300   0.001497  -0.001154   9.934150  -0.000181  -0.000598  22.683400   2.746990   6.546020  18.687600  -0.005378  -0.000484  13.081000  -0.001905  -0.001991  27.022900   1.278300   2.497730  27.184300  -0.013310   0.006852  18.104700  -0.001649   0.002760  23.042300   0.589965   1.392490  23.049400  -0.003046   0.006189  15.348200  -0.002906   0.004539  31.048800   0.780357   1.296510  46.586400   0.001392   0.002399  31.026500   0.005729   0.005987   2.862160   8.878240   3.322160   1.399280   0.010020   8.034660  -2.436910  -2.092590   0.886961   0.000000   0.000000   0.000000   3.181830   7.647390   0.341316  -1.505690   3.202840  -9.657380   1.040030  -4.280440  -2.842070  -0.000000   0.000000   0.000000
 -0.156363  89.615400   0.362247  -2.269550  -7.811660  -0.000697   0.329303   4.015800   0.905822   0.596966   8.036330   1.795070   1.608320   0.927660  -0.021729   2.644380   1.876150  -2.511300  -1.043720  -1.851430   1.089030 -76.598000  14.801600   0.237396  -1.575430  -2.958510 -13.738200  10.310700  -7.306970   0.047014  39.220100  25.311800 -57.560900 -25.127300   0.000000   0.000115  -7.563650   0.013112  -0.001106 -23.553000   3.818910  -8.687020 -19.508100  -0.004454   0.002884 -13.655700   0.000161   0.003038 -24.564400  -0.059066   0.129205 -24.564400  -0.000309   0.002817 -16.359900  -0.000874   0.001720 -23.711000  -0.057126   0.130072 -23.711100  -0.000578   0.005491 -15.791600  -0.001440   0.003100 -23.361400  -0.056337   0.130417 -35.042200  -0.004618   0.002428 -23.338100  -0.008912   0.000000   7.762390   0.732917   2.916810  73.031200   3.157390  -5.987710   0.760142  -8.877340   9.680220 -15.752100  -6.221100   2.407660 -37.842500  30.789300  66.229400  29.891700   0.001497  -0.001137   9.945840  -0.000170  -0.000594  22.696600   2.746870   6.549310  18.698300  -0.005387  -0.000476  13.088800  -0.001907  -0.001982  27.022900   1.277990   2.503680  27.191700  -0.013307   0.006851  18.109600  -0.001648   0.002754  23.038200   0.589953   1.406210  23.045400  -0.003044   0.006184  15.348200  -0.002913   0.004535  31.013900   0.787447   1.309630  46.534300   0.001388   0.002394  30.991800   0.005725   0.005984   2.861790   8.877860   3.321940   1.400220   0.002014   8.034660  -2.444070  -2.092370   0.894615   0.000000   0.000000   0.000000   3.182000   7.648160   0.339284  -1.493810   3.178980  -9.657810   1.031260  -4.265310  -2.834600  -0.000000   0.000000   0.000000
 -0.161967  89.615500   0.357890  -2.270410  -7.813160  -0.010477   0.329766   4.036290   0.905639   0.597602   8.077280   1.794670   1.595460   0.891114  -0.021737   2.622440   1.802470  -2.467530  -1.062970  -1.855520   1.096190 -76.568000  14.833200   0.204239  -1.582940  -2.987880 -13.746700  10.313800  -7.324570   0.025425  39.210800  25.311700 -57.573900 -25.139400   0.000000   0.000108  -7.569710   0.013210  -0.001148 -23.568400   3.822870  -8.687960 -19.521000  -0.004520   0.002886 -13.664800   0.000089   0.003095 -24.577100  -0.057812   0.133309 -24.577100  -0.000155   0.002848 -16.368400  -0.000784   0.001775 -23.731700  -0.055918   0.134202 -23.731800  -0.000479   0.005690 -15.805400  -0.001378   0.003445 -23.379500  -0.055141   0.134559 -35.069300  -0.004510   0.002494 -23.356200  -0.009038   0.000087   7.759340   0.713134   2.938840  73.031100   3.157710  -6.012300   0.795423  -8.885350   9.622860 -15.768500  -6.211870   2.393130 -37.824700  30.790000  66.238300  29.917000   0.001500  -0.001132   9.958580  -0.000150  -0.000591  22.701400   2.746930   6.542070  18.702200  -0.005402  -0.000464  13.093300  -0.001911  -0.001971  27.023100   1.278060   2.504680  27.188800  -0.013302   0.006852  18.107700  -0.001649   0.002744  23.025700   0.589957   1.397530  23.032900  -0.003041   0.006177  15.341000  -0.002924   0.004529  30.972100   0.781542   1.301990  46.471400   0.001381   0.002387  30.949900   0.005720   0.005979   2.864230   8.853270   3.321690   1.399450   0.052680   8.030590  -2.456540  -2.118790   0.905713   0.000000   0.000000   0.000000   3.181500   7.648690   0.342941  -1.481520   3.172990  -9.655020   1.024120  -4.257210  -2.831150  -0.000000   0.000000   0.000000
